<?xml version="1.0" encoding="UTF-8"?>
<svg id="Layer_1" data-name="Layer 1" xmlns="http://www.w3.org/2000/svg" viewBox="0 0 718.47 332.43">
  <defs>
    <style>
      .cls-1 {
        fill: #fff;
      }
    </style>
  </defs>
  <path class="cls-1" d="M81.8,305.86l-31.1-60.85,80.17-179.81-62.02,23.23-48.62-23.68L160.59,10.06c11.14,10.75,25.37,19.92,36.33,30.61,1.21,1.18,3.02,2.27,2.54,4.24l-117.67,260.95Z"/>
  <path class="cls-1" d="M517.76,72.33c1.42.18,6.57,1.88,8.2,2.5,26.78,10.3,23.37,49.8-4.18,55.88l36.14,39.65,40.75-97.88,31.11.28,40.14,98.51h-24.99l-11.7-31.09-38.13.04-12.29,31.1-55.07-.22-33.64-39.49-5.35-.45v40.11h-23.2v-98.94h52.21ZM488.76,91.04v23.62l1.34,1.34h16.06c2.59,0,8.22-2.16,10.17-4.1,6.69-6.65,1.68-20.86-5.71-20.86h-21.87ZM625.3,121.35l-10.72-30.3c-1.23.09-1.42,1.3-1.82,2.18-3.8,8.32-6.56,19.37-9.77,28.12h22.31Z"/>
  <path class="cls-1" d="M393.08,70.81c76.58-4.65,77.76,107.44-2.08,101.38-63.48-4.82-63.63-97.39,2.08-101.38ZM393.04,92.17c-38.81,5.26-30.19,67.36,11.15,58.37,34.22-7.44,26.98-63.54-11.15-58.37Z"/>
  <polygon class="cls-1" points="281.7 72.33 281.7 113.33 311.15 72.33 339.71 72.33 302.32 120.14 340.61 171.27 311.6 171.27 281.7 130.26 281.7 169.93 280.36 171.27 257.61 171.27 257.61 72.33 281.7 72.33"/>
  <path class="cls-1" d="M380.55,221.42c35.64-4.41,35.42,48.47,1.65,45.13-28.37-2.81-27.16-41.97-1.65-45.13ZM380.53,227.64c-17.94,3.1-16.16,30.37-.14,32.69,28.25,4.09,27.14-37.35.14-32.69Z"/>
  <path class="cls-1" d="M645.51,227.74c1.01,1.01,5.04,6.59,3.89,7.7-7.81,2.02-8.53-5.86-15.14-7.6-16.3-4.31-28.91,11.64-19.52,25.73,9.01,13.53,32.28,6.78,30.58-10.16,8.48-3.43,7.42,2.99,5.39,8.94-7.9,23.13-49.37,18.09-44.97-13.71,2.42-17.45,27.87-22.81,39.76-10.9Z"/>
  <path class="cls-1" d="M326.77,222.07c14.05,2.33,11.91,23.69-2.23,24.51l16.95,19.16-8.74-.18-15.54-19.22-4.28-.19v19.61h-6.25v-43.68c6.12.71,14.25-.97,20.08,0ZM312.94,240.79h12.94c.94,0,3.99-4.1,4.1-5.79.14-2.11-2.45-7.58-4.1-7.58h-12.94v13.37Z"/>
  <path class="cls-1" d="M462.87,232.77c-8.24,2.22-7.03-6.34-14.73-6.32-4.18.01-10.21,3.31-8.04,8.08,3.36,7.35,23.77,1.24,26.12,14.05,4.59,25.01-38.57,23.31-36.38-.66h7.15c-3.21,18.26,28.96,15.97,22.52,1.12-3.23-7.45-23.48-1.48-25.89-13.36-3.57-17.57,27.97-19.8,29.25-2.92Z"/>
  <path class="cls-1" d="M236.18,265.74c-1.58-.12-3.39.28-4.91,0-3.03-.56-6.55-12.57-7.69-15.94h-18.54c-3.12,6.28-3.26,18.43-12.59,15.93l17.97-43.55c2.73-.03,6.99-1.13,8.73,1.29l17.03,42.26ZM221.01,244.36l-6.69-16.94c-1.89,5.59-5.22,11.09-5.8,16.94h12.49Z"/>
  <path class="cls-1" d="M566.25,222.22l18,43.52-7.02-.11-6.33-15.51c-3.19-.33-16.82-1.34-18.34.48l-5.94,15.01-6.1.14,17.39-42.79,8.34-.73ZM555.69,244.36h12.49l-5.81-16.05c-1.98-.4-1.12.87-1.55,1.97-1.84,4.62-3.73,9.31-5.13,14.08Z"/>
  <path class="cls-1" d="M496.79,247.92v17.83h-6.25v-43.68h18.3c2.59,0,9.05,5.35,9.87,7.97,1.5,4.83.23,11.73-3.75,15.07-.71.6-4.69,2.8-5.23,2.8h-12.94ZM496.79,242.57c21.62,3.44,21.46-18.51,0-15.15v15.15Z"/>
  <polygon class="cls-1" points="698.49 222.07 698.49 227.42 682.42 227.42 682.42 239.9 698.49 239.9 698.49 245.25 682.42 245.25 682.42 260.4 698.49 260.4 698.49 265.75 676.17 265.75 676.17 222.07 698.49 222.07"/>
  <polygon class="cls-1" points="281.7 222.07 281.7 227.42 264.74 227.42 264.74 239.9 281.7 239.9 281.7 245.25 266.08 245.25 264.74 246.59 264.74 260.4 281.7 260.4 281.7 265.75 259.39 265.75 259.39 222.07 281.7 222.07"/>
</svg>