<svg version="1.1" id="Layer_1" xmlns="http://www.w3.org/2000/svg" xmlns:xlink="http://www.w3.org/1999/xlink" x="0px" y="0px"
	 width="100%" viewBox="0 0 885 420" enable-background="new 0 0 885 420" xml:space="preserve">
<path fill="#2F2F2F" opacity="1.000000" stroke="none" 
	d="
M541.000000,421.000000 
	C360.666687,421.000000 180.833405,421.000000 1.000072,421.000000 
	C1.000048,281.000061 1.000048,141.000122 1.000024,1.000129 
	C295.999908,1.000086 590.999817,1.000086 885.999756,1.000043 
	C885.999878,140.999863 885.999878,280.999725 885.999939,420.999817 
	C771.166687,421.000000 656.333313,421.000000 541.000000,421.000000 
M642.668396,212.846725 
	C629.394226,198.111465 616.119995,183.376205 602.583862,168.350189 
	C612.079834,165.790634 619.510376,161.376984 623.951965,153.085541 
	C633.976074,134.372833 626.876343,105.606209 595.901367,103.403763 
	C577.696350,102.109306 559.324036,103.167496 540.754272,103.167496 
	C540.754272,139.997131 540.754272,176.710953 540.754272,213.604156 
	C549.221497,213.604156 557.460266,213.604156 566.234497,213.604156 
	C566.234497,198.660721 566.234497,183.946518 566.234497,167.384369 
	C569.604980,169.377213 572.274536,170.206512 573.837463,172.000092 
	C584.739990,184.511780 595.371216,197.259430 606.211060,209.826614 
	C607.628845,211.470352 609.715332,213.617004 611.533630,213.657364 
	C621.988647,213.889496 632.456299,213.557037 643.848999,213.646286 
	C651.837158,213.711639 659.830688,213.629395 667.810608,213.921249 
	C670.658142,214.025391 671.914062,212.971069 672.860840,210.482468 
	C676.505615,200.902969 680.402283,191.418594 683.982239,181.815704 
	C684.867920,179.440140 685.877441,178.421494 688.539429,178.454041 
	C700.361206,178.598633 712.186646,178.599197 724.008484,178.456558 
	C726.835083,178.422455 727.963379,179.447052 728.923889,182.068192 
	C732.345642,191.406143 736.034485,200.650391 739.845398,209.837555 
	C740.494812,211.403091 742.194885,213.605621 743.485474,213.658463 
	C751.899719,214.002838 760.334900,213.835449 768.885864,213.835449 
	C768.815674,212.875244 768.901672,212.347275 768.728638,211.925644 
	C754.189087,176.504440 739.660461,141.078568 724.948547,105.728981 
	C724.408875,104.432312 722.084717,103.164497 720.552124,103.114563 
	C712.567261,102.854347 704.537781,103.427261 696.586487,102.848686 
	C690.773438,102.425697 687.615356,104.161125 686.438660,109.933006 
	C685.953369,112.313591 684.551208,114.502121 683.608215,116.795341 
	C673.037476,142.502213 662.529663,168.235153 651.872864,193.906265 
	C649.118286,200.541809 645.903320,206.986221 642.668396,212.846725 
M213.902328,46.609474 
	C211.111328,44.247169 208.052032,42.133148 205.586914,39.469280 
	C200.895477,34.399624 196.699020,33.198948 189.449982,36.092747 
	C145.071075,53.808708 100.365196,70.705254 55.782719,87.912262 
	C50.940800,89.781044 46.191422,91.889595 41.024189,94.043190 
	C42.015022,95.140152 42.268497,95.636566 42.669128,95.833260 
	C59.367363,104.031837 76.058884,112.245003 92.827934,120.296623 
	C94.109467,120.911949 96.121178,120.809486 97.506004,120.283623 
	C112.862122,114.452408 128.161591,108.472031 143.476013,102.531013 
	C150.489548,99.810188 157.502274,97.087257 165.431290,94.009789 
	C164.844620,95.778297 164.668579,96.518494 164.362778,97.200508 
	C154.054596,120.190659 143.686859,143.154221 133.425812,166.165390 
	C116.016258,205.207687 99.142403,244.499710 80.993996,283.194611 
	C76.034836,293.768219 76.008209,301.600616 82.042450,311.582977 
	C92.358589,328.648773 101.022728,346.713196 110.770844,365.093903 
	C112.314842,362.145782 113.650192,359.902161 114.705452,357.533691 
	C125.295860,333.764313 135.814606,309.962952 146.404190,286.193207 
	C159.425995,256.963989 172.507599,227.761429 185.541641,198.537689 
	C195.870773,175.378647 206.165588,152.204330 216.478653,129.038132 
	C224.703308,110.563110 232.977081,92.109512 241.054398,73.570320 
	C241.565536,72.397179 241.105103,69.950729 240.180511,69.134628 
	C231.709946,61.658119 223.036591,54.411381 213.902328,46.609474 
M406.976288,137.614319 
	C400.670135,155.587341 401.441986,173.146927 412.223907,189.060211 
	C433.565521,220.558792 480.808044,224.543747 507.661591,197.588852 
	C528.967834,176.202255 528.482971,139.155838 507.403503,118.524956 
	C479.573486,91.287178 424.201172,96.154701 406.976288,137.614319 
M373.725800,213.848175 
	C382.272125,213.848175 390.818481,213.848175 400.234344,213.848175 
	C385.319305,194.452103 371.037994,175.880173 356.687134,157.217743 
	C370.863312,139.194778 384.776978,121.505592 399.337830,102.993607 
	C388.743683,102.993607 379.162262,102.931717 369.584167,103.082207 
	C368.540771,103.098587 367.221100,104.120361 366.531464,105.048653 
	C361.973663,111.183678 357.551514,117.419487 353.088379,123.624771 
	C346.945374,132.165695 340.805176,140.708618 334.663788,149.250671 
	C334.299469,149.129333 333.935181,149.007980 333.570862,148.886642 
	C333.570862,133.687378 333.570862,118.488129 333.570862,103.380890 
	C324.430359,103.380890 315.878937,103.380890 307.509644,103.380890 
	C307.509644,140.338013 307.509644,176.902237 307.509644,213.519012 
	C316.261017,213.519012 324.650574,213.519012 333.836914,213.519012 
	C333.836914,198.111481 333.836914,183.017212 333.836914,166.518814 
	C344.781982,181.828308 354.905029,195.713425 364.664673,209.849442 
	C366.862579,213.032913 369.139038,214.432831 373.725800,213.848175 
M474.935944,298.170471 
	C475.392822,282.319214 466.932373,272.325989 451.375244,270.341339 
	C439.712769,268.853516 427.525543,276.574127 424.202789,287.555023 
	C420.415985,300.069489 425.804535,312.672821 437.247253,318.142700 
	C451.750641,325.075653 471.825317,318.424866 474.935944,298.170471 
M387.708374,296.396576 
	C394.009796,292.476044 396.134735,287.777130 394.721558,280.888336 
	C393.682434,275.823120 388.796265,271.413605 382.927399,271.119324 
	C375.998260,270.771820 369.038330,271.037750 362.019684,271.037750 
	C362.019684,287.532623 362.019684,303.627228 362.019684,319.845154 
	C364.205231,319.845154 366.160767,319.845154 368.576294,319.845154 
	C368.576294,312.572540 368.576294,305.468323 368.576294,296.888947 
	C371.349792,298.256439 373.616333,298.741821 374.921448,300.130707 
	C379.696198,305.211823 384.662262,310.245026 388.566895,315.970886 
	C391.793976,320.703156 395.512421,320.274902 400.637512,319.673920 
	C397.079498,315.633179 394.006927,312.188416 390.985352,308.699493 
	C388.038300,305.296661 385.143433,301.848602 381.964233,298.113251 
	C384.174011,297.548645 385.615051,297.180481 387.708374,296.396576 
M727.746216,270.768250 
	C715.731323,268.654327 704.613098,273.667542 699.432129,283.535095 
	C694.300415,293.308838 696.035461,305.493042 704.087402,313.360016 
	C711.962585,321.054321 721.667480,322.496765 731.800171,319.483673 
	C740.865723,316.787903 746.719238,310.558502 748.399292,300.883972 
	C749.538940,294.321381 748.331360,293.271606 741.553223,295.325043 
	C741.559265,303.451569 738.462463,309.794647 730.556580,313.011505 
	C721.218872,316.810974 710.424805,313.159973 705.958374,304.821198 
	C701.380554,296.274475 703.915894,284.620300 711.789551,279.475800 
	C718.263733,275.245758 730.444458,274.902466 737.591370,283.425262 
	C739.103638,285.228668 742.690002,285.292847 745.320679,286.158386 
	C742.698242,276.848450 736.660034,272.599030 727.746216,270.768250 
M511.722198,318.932892 
	C517.835815,321.196411 524.013794,321.556824 530.245728,319.475250 
	C536.991211,317.222137 541.455566,310.700104 541.019287,303.819122 
	C540.576050,296.828644 536.452881,292.392242 528.779541,290.884796 
	C524.715088,290.086334 520.479004,289.926086 516.563171,288.701599 
	C514.492432,288.054047 512.195557,286.045837 511.401520,284.084808 
	C510.807892,282.618744 511.915314,279.728638 513.209290,278.375000 
	C516.721130,274.701172 525.535522,275.013397 527.966492,279.354370 
	C530.366272,283.639679 533.229675,283.326599 536.884277,282.725220 
	C535.550598,276.159637 532.006104,272.028534 526.087402,271.096863 
	C522.396240,270.515778 518.465149,270.444061 514.784424,271.034027 
	C508.210144,272.087708 504.215729,276.950775 504.131104,282.986633 
	C504.045593,289.083282 507.821869,293.553833 514.597778,295.003113 
	C518.482483,295.834015 522.452881,296.256958 526.372375,296.934845 
	C530.690002,297.681519 533.876526,299.588959 533.978149,304.588226 
	C534.072327,309.220276 531.490417,312.988953 526.798706,314.024872 
	C515.248718,316.575165 508.766235,312.286682 506.947662,300.264069 
	C504.683167,300.264069 502.428650,300.264069 500.100830,300.264069 
	C500.033173,308.835876 503.663635,314.837982 511.722198,318.932892 
M632.998108,297.332184 
	C629.948792,304.744080 626.899475,312.156006 623.820923,319.638977 
	C628.468628,320.718079 631.512085,320.102509 632.966919,315.291687 
	C634.341919,310.744690 635.328857,304.746216 638.617371,302.484894 
	C641.945374,300.196320 647.905334,301.919342 652.676758,301.489655 
	C656.811890,301.117310 659.175293,302.323212 660.144531,306.638000 
	C660.787231,309.499023 662.820435,312.044708 663.483643,314.904877 
	C664.673340,320.035614 667.635498,320.932129 672.551270,319.463165 
	C666.053467,303.840240 659.769714,288.343536 652.987305,273.068176 
	C652.358154,271.651184 648.583679,271.275787 646.228455,271.142029 
	C645.179626,271.082489 643.538574,272.602478 643.003540,273.784546 
	C639.591187,281.323517 636.412170,288.968109 632.998108,297.332184 
M235.193024,319.953430 
	C239.628601,320.813354 242.371094,319.452789 243.355652,314.634644 
	C243.905991,311.941498 245.956390,309.551086 246.485336,306.858215 
	C247.459091,301.900665 250.483963,301.401642 254.772980,301.469482 
	C268.703094,301.689819 268.946564,301.461182 273.679321,314.551819 
	C275.446960,319.441010 277.887054,321.205200 282.946777,319.580780 
	C276.598511,304.115479 270.359161,288.620148 263.733215,273.291901 
	C263.155975,271.956482 260.050415,271.199463 258.089691,271.139435 
	C256.520752,271.091400 253.972351,272.116577 253.454834,273.340424 
	C246.954910,288.711426 240.745667,304.205353 235.193024,319.953430 
M567.815918,274.894684 
	C567.815918,289.830017 567.815918,304.765320 567.815918,319.831604 
	C570.190247,319.831604 572.144653,319.831604 574.551270,319.831604 
	C574.551270,313.242493 574.551270,306.825623 574.551270,300.011719 
	C578.629517,300.011719 582.265320,300.128082 585.891113,299.987610 
	C593.531860,299.691467 599.193726,294.712830 599.953735,287.788574 
	C600.848755,279.635559 597.143005,273.255035 589.213440,271.825134 
	C582.763672,270.662109 576.004700,271.147430 569.382446,271.137512 
	C568.862061,271.136719 568.338928,272.987244 567.815918,274.894684 
M782.538208,300.363556 
	C782.224731,297.557312 783.794800,297.089783 786.176392,297.151062 
	C790.995850,297.275116 795.820801,297.188080 800.816650,297.188080 
	C800.816650,295.145325 800.816650,293.371948 800.816650,291.093689 
	C794.712097,291.093689 788.793091,291.093689 782.801208,291.093689 
	C782.801208,286.183594 782.801208,281.781128 782.801208,276.985962 
	C788.984192,276.985962 794.910645,276.985962 800.961304,276.985962 
	C800.961304,274.809845 800.961304,273.036591 800.961304,271.357391 
	C792.514832,271.357391 784.296021,271.357391 776.365112,271.357391 
	C776.365112,287.798767 776.365112,303.866730 776.365112,319.691071 
	C784.818359,319.691071 792.888916,319.691071 800.862915,319.691071 
	C800.862915,317.619995 800.862915,315.877899 800.862915,313.758240 
	C794.603882,313.758240 788.661438,313.758240 782.532715,313.758240 
	C782.532715,309.381317 782.532715,305.387543 782.538208,300.363556 
M325.473145,297.177734 
	C328.063995,297.177734 330.654846,297.177734 333.550659,297.177734 
	C333.440308,294.711792 333.363495,292.995056 333.268982,290.882172 
	C326.961639,290.882172 321.214294,290.882172 315.507172,290.882172 
	C315.507172,286.050659 315.507172,281.652435 315.507172,276.824951 
	C321.757385,276.824951 327.683228,276.824951 333.880493,276.824951 
	C333.782104,274.651062 333.704193,272.929230 333.632629,271.347717 
	C325.068909,271.347717 317.001709,271.347717 309.013123,271.347717 
	C309.013123,287.646271 309.013123,303.588165 309.013123,320.008301 
	C310.649750,320.008301 312.101105,320.008301 313.552490,320.008301 
	C320.174713,320.008301 326.796967,320.008301 333.583618,320.008301 
	C333.583618,317.821655 333.583618,316.103424 333.583618,313.932373 
	C327.420929,313.932373 321.501465,313.932373 315.612976,313.932373 
	C315.612976,308.109833 315.612976,302.751587 315.612976,297.177734 
	C318.869324,297.177734 321.691711,297.177734 325.473145,297.177734 
z"/>
<path fill="#FDFDFD" opacity="1.000000" stroke="none" 
	d="
M214.162354,46.853554 
	C223.036591,54.411381 231.709946,61.658119 240.180511,69.134628 
	C241.105103,69.950729 241.565536,72.397179 241.054398,73.570320 
	C232.977081,92.109512 224.703308,110.563110 216.478653,129.038132 
	C206.165588,152.204330 195.870773,175.378647 185.541641,198.537689 
	C172.507599,227.761429 159.425995,256.963989 146.404190,286.193207 
	C135.814606,309.962952 125.295860,333.764313 114.705452,357.533691 
	C113.650192,359.902161 112.314842,362.145782 110.770844,365.093903 
	C101.022728,346.713196 92.358589,328.648773 82.042450,311.582977 
	C76.008209,301.600616 76.034836,293.768219 80.993996,283.194611 
	C99.142403,244.499710 116.016258,205.207687 133.425812,166.165390 
	C143.686859,143.154221 154.054596,120.190659 164.362778,97.200508 
	C164.668579,96.518494 164.844620,95.778297 165.431290,94.009789 
	C157.502274,97.087257 150.489548,99.810188 143.476013,102.531013 
	C128.161591,108.472031 112.862122,114.452408 97.506004,120.283623 
	C96.121178,120.809486 94.109467,120.911949 92.827934,120.296623 
	C76.058884,112.245003 59.367363,104.031837 42.669128,95.833260 
	C42.268497,95.636566 42.015022,95.140152 41.024189,94.043190 
	C46.191422,91.889595 50.940800,89.781044 55.782719,87.912262 
	C100.365196,70.705254 145.071075,53.808708 189.449982,36.092747 
	C196.699020,33.198948 200.895477,34.399624 205.586914,39.469280 
	C208.052032,42.133148 211.111328,44.247169 214.162354,46.853554 
z"/>
<path fill="#FDFDFD" opacity="1.000000" stroke="none" 
	d="
M407.046021,137.229172 
	C424.201172,96.154701 479.573486,91.287178 507.403503,118.524956 
	C528.482971,139.155838 528.967834,176.202255 507.661591,197.588852 
	C480.808044,224.543747 433.565521,220.558792 412.223907,189.060211 
	C401.441986,173.146927 400.670135,155.587341 407.046021,137.229172 
M491.316864,140.234818 
	C481.282074,124.391098 459.500671,119.978310 444.248322,130.638412 
	C432.863251,138.595612 429.758484,150.035645 431.078003,162.977432 
	C432.374634,175.694305 438.750488,185.278229 451.160492,189.488251 
	C463.917114,193.815872 476.098083,192.656158 486.237244,182.720139 
	C497.050781,172.123291 499.062317,156.093460 491.316864,140.234818 
z"/>
<path fill="#FBFBFB" opacity="1.000000" stroke="none" 
	d="
M642.919617,213.416016 
	C632.456299,213.557037 621.988647,213.889496 611.533630,213.657364 
	C609.715332,213.617004 607.628845,211.470352 606.211060,209.826614 
	C595.371216,197.259430 584.739990,184.511780 573.837463,172.000092 
	C572.274536,170.206512 569.604980,169.377213 566.234497,167.384369 
	C566.234497,183.946518 566.234497,198.660721 566.234497,213.604156 
	C557.460266,213.604156 549.221497,213.604156 540.754272,213.604156 
	C540.754272,176.710953 540.754272,139.997131 540.754272,103.167496 
	C559.324036,103.167496 577.696350,102.109306 595.901367,103.403763 
	C626.876343,105.606209 633.976074,134.372833 623.951965,153.085541 
	C619.510376,161.376984 612.079834,165.790634 602.583862,168.350189 
	C616.119995,183.376205 629.394226,198.111465 642.798584,213.158188 
	C642.928711,213.469650 642.919617,213.416016 642.919617,213.416016 
M566.154968,128.733826 
	C566.154968,136.305649 566.154968,143.877472 566.154968,151.289124 
	C574.267151,151.289124 581.732117,151.789642 589.097412,151.147171 
	C596.339783,150.515427 601.022217,144.451965 600.841492,137.503235 
	C600.652649,130.243729 596.131653,124.606148 588.870789,124.036316 
	C581.495483,123.457512 574.039368,123.908485 566.348511,123.908485 
	C566.282837,125.227242 566.218933,126.511383 566.154968,128.733826 
z"/>
<path fill="#FCFCFC" opacity="1.000000" stroke="none" 
	d="
M643.384277,213.531158 
	C642.919617,213.416016 642.928711,213.469650 642.914246,213.494049 
	C645.903320,206.986221 649.118286,200.541809 651.872864,193.906265 
	C662.529663,168.235153 673.037476,142.502213 683.608215,116.795341 
	C684.551208,114.502121 685.953369,112.313591 686.438660,109.933006 
	C687.615356,104.161125 690.773438,102.425697 696.586487,102.848686 
	C704.537781,103.427261 712.567261,102.854347 720.552124,103.114563 
	C722.084717,103.164497 724.408875,104.432312 724.948547,105.728981 
	C739.660461,141.078568 754.189087,176.504440 768.728638,211.925644 
	C768.901672,212.347275 768.815674,212.875244 768.885864,213.835449 
	C760.334900,213.835449 751.899719,214.002838 743.485474,213.658463 
	C742.194885,213.605621 740.494812,211.403091 739.845398,209.837555 
	C736.034485,200.650391 732.345642,191.406143 728.923889,182.068192 
	C727.963379,179.447052 726.835083,178.422455 724.008484,178.456558 
	C712.186646,178.599197 700.361206,178.598633 688.539429,178.454041 
	C685.877441,178.421494 684.867920,179.440140 683.982239,181.815704 
	C680.402283,191.418594 676.505615,200.902969 672.860840,210.482468 
	C671.914062,212.971069 670.658142,214.025391 667.810608,213.921249 
	C659.830688,213.629395 651.837158,213.711639 643.384277,213.531158 
M705.463745,125.024300 
	C701.568115,135.829880 697.672485,146.635468 693.733643,157.560898 
	C702.382751,157.560898 710.591797,157.560898 719.132507,157.560898 
	C715.103088,146.316925 711.210938,135.434174 707.255249,124.574554 
	C707.177673,124.361496 706.355286,124.419701 705.463745,125.024300 
z"/>
<path fill="#FAFAFA" opacity="1.000000" stroke="none" 
	d="
M373.262817,213.848175 
	C369.139038,214.432831 366.862579,213.032913 364.664673,209.849442 
	C354.905029,195.713425 344.781982,181.828308 333.836914,166.518814 
	C333.836914,183.017212 333.836914,198.111481 333.836914,213.519012 
	C324.650574,213.519012 316.261017,213.519012 307.509644,213.519012 
	C307.509644,176.902237 307.509644,140.338013 307.509644,103.380890 
	C315.878937,103.380890 324.430359,103.380890 333.570862,103.380890 
	C333.570862,118.488129 333.570862,133.687378 333.570862,148.886642 
	C333.935181,149.007980 334.299469,149.129333 334.663788,149.250671 
	C340.805176,140.708618 346.945374,132.165695 353.088379,123.624771 
	C357.551514,117.419487 361.973663,111.183678 366.531464,105.048653 
	C367.221100,104.120361 368.540771,103.098587 369.584167,103.082207 
	C379.162262,102.931717 388.743683,102.993607 399.337830,102.993607 
	C384.776978,121.505592 370.863312,139.194778 356.687134,157.217743 
	C371.037994,175.880173 385.319305,194.452103 400.234344,213.848175 
	C390.818481,213.848175 382.272125,213.848175 373.262817,213.848175 
z"/>
<path fill="#F2F2F2" opacity="1.000000" stroke="none" 
	d="
M474.900330,298.610107 
	C471.825317,318.424866 451.750641,325.075653 437.247253,318.142700 
	C425.804535,312.672821 420.415985,300.069489 424.202789,287.555023 
	C427.525543,276.574127 439.712769,268.853516 451.375244,270.341339 
	C466.932373,272.325989 475.392822,282.319214 474.900330,298.610107 
M467.971924,294.609100 
	C467.669861,292.987213 467.481781,291.333984 467.046478,289.748688 
	C464.852142,281.757050 458.019318,276.712952 449.294281,276.564484 
	C441.206787,276.426910 433.167877,281.948730 431.084900,289.393158 
	C428.968292,296.957672 430.226624,303.948822 436.105957,309.456451 
	C441.835205,314.823486 448.724792,315.780945 455.974091,313.126251 
	C464.107635,310.147736 467.589111,303.791138 467.971924,294.609100 
z"/>
<path fill="#F2F2F2" opacity="1.000000" stroke="none" 
	d="
M387.382202,296.604431 
	C385.615051,297.180481 384.174011,297.548645 381.964233,298.113251 
	C385.143433,301.848602 388.038300,305.296661 390.985352,308.699493 
	C394.006927,312.188416 397.079498,315.633179 400.637512,319.673920 
	C395.512421,320.274902 391.793976,320.703156 388.566895,315.970886 
	C384.662262,310.245026 379.696198,305.211823 374.921448,300.130707 
	C373.616333,298.741821 371.349792,298.256439 368.576294,296.888947 
	C368.576294,305.468323 368.576294,312.572540 368.576294,319.845154 
	C366.160767,319.845154 364.205231,319.845154 362.019684,319.845154 
	C362.019684,303.627228 362.019684,287.532623 362.019684,271.037750 
	C369.038330,271.037750 375.998260,270.771820 382.927399,271.119324 
	C388.796265,271.413605 393.682434,275.823120 394.721558,280.888336 
	C396.134735,287.777130 394.009796,292.476044 387.382202,296.604431 
M381.850159,276.946289 
	C377.562408,276.946289 373.274658,276.946289 368.896057,276.946289 
	C368.896057,282.266418 368.896057,287.149567 368.896057,292.441589 
	C372.524963,292.441589 375.828522,292.356812 379.125977,292.462585 
	C383.458801,292.601501 386.799072,291.040039 387.732483,286.637726 
	C388.646210,282.327850 387.340759,278.705139 381.850159,276.946289 
z"/>
<path fill="#F1F1F1" opacity="1.000000" stroke="none" 
	d="
M728.168823,270.796814 
	C736.660034,272.599030 742.698242,276.848450 745.320679,286.158386 
	C742.690002,285.292847 739.103638,285.228668 737.591370,283.425262 
	C730.444458,274.902466 718.263733,275.245758 711.789551,279.475800 
	C703.915894,284.620300 701.380554,296.274475 705.958374,304.821198 
	C710.424805,313.159973 721.218872,316.810974 730.556580,313.011505 
	C738.462463,309.794647 741.559265,303.451569 741.553223,295.325043 
	C748.331360,293.271606 749.538940,294.321381 748.399292,300.883972 
	C746.719238,310.558502 740.865723,316.787903 731.800171,319.483673 
	C721.667480,322.496765 711.962585,321.054321 704.087402,313.360016 
	C696.035461,305.493042 694.300415,293.308838 699.432129,283.535095 
	C704.613098,273.667542 715.731323,268.654327 728.168823,270.796814 
z"/>
<path fill="#F3F3F3" opacity="1.000000" stroke="none" 
	d="
M511.382782,318.756653 
	C503.663635,314.837982 500.033173,308.835876 500.100830,300.264069 
	C502.428650,300.264069 504.683167,300.264069 506.947662,300.264069 
	C508.766235,312.286682 515.248718,316.575165 526.798706,314.024872 
	C531.490417,312.988953 534.072327,309.220276 533.978149,304.588226 
	C533.876526,299.588959 530.690002,297.681519 526.372375,296.934845 
	C522.452881,296.256958 518.482483,295.834015 514.597778,295.003113 
	C507.821869,293.553833 504.045593,289.083282 504.131104,282.986633 
	C504.215729,276.950775 508.210144,272.087708 514.784424,271.034027 
	C518.465149,270.444061 522.396240,270.515778 526.087402,271.096863 
	C532.006104,272.028534 535.550598,276.159637 536.884277,282.725220 
	C533.229675,283.326599 530.366272,283.639679 527.966492,279.354370 
	C525.535522,275.013397 516.721130,274.701172 513.209290,278.375000 
	C511.915314,279.728638 510.807892,282.618744 511.401520,284.084808 
	C512.195557,286.045837 514.492432,288.054047 516.563171,288.701599 
	C520.479004,289.926086 524.715088,290.086334 528.779541,290.884796 
	C536.452881,292.392242 540.576050,296.828644 541.019287,303.819122 
	C541.455566,310.700104 536.991211,317.222137 530.245728,319.475250 
	C524.013794,321.556824 517.835815,321.196411 511.382782,318.756653 
z"/>
<path fill="#F4F4F4" opacity="1.000000" stroke="none" 
	d="
M633.077271,296.955078 
	C636.412170,288.968109 639.591187,281.323517 643.003540,273.784546 
	C643.538574,272.602478 645.179626,271.082489 646.228455,271.142029 
	C648.583679,271.275787 652.358154,271.651184 652.987305,273.068176 
	C659.769714,288.343536 666.053467,303.840240 672.551270,319.463165 
	C667.635498,320.932129 664.673340,320.035614 663.483643,314.904877 
	C662.820435,312.044708 660.787231,309.499023 660.144531,306.638000 
	C659.175293,302.323212 656.811890,301.117310 652.676758,301.489655 
	C647.905334,301.919342 641.945374,300.196320 638.617371,302.484894 
	C635.328857,304.746216 634.341919,310.744690 632.966919,315.291687 
	C631.512085,320.102509 628.468628,320.718079 623.820923,319.638977 
	C626.899475,312.156006 629.948792,304.744080 633.077271,296.955078 
M649.959534,281.335876 
	C649.438232,280.119476 648.916931,278.903107 648.064758,276.914551 
	C645.428040,283.749023 643.173401,289.593292 640.933167,295.400085 
	C646.115479,295.400085 650.631592,295.400085 655.596252,295.400085 
	C653.659363,290.600189 651.940979,286.341858 649.959534,281.335876 
z"/>
<path fill="#F4F4F4" opacity="1.000000" stroke="none" 
	d="
M234.827530,319.810608 
	C240.745667,304.205353 246.954910,288.711426 253.454834,273.340424 
	C253.972351,272.116577 256.520752,271.091400 258.089691,271.139435 
	C260.050415,271.199463 263.155975,271.956482 263.733215,273.291901 
	C270.359161,288.620148 276.598511,304.115479 282.946777,319.580780 
	C277.887054,321.205200 275.446960,319.441010 273.679321,314.551819 
	C268.946564,301.461182 268.703094,301.689819 254.772980,301.469482 
	C250.483963,301.401642 247.459091,301.900665 246.485336,306.858215 
	C245.956390,309.551086 243.905991,311.941498 243.355652,314.634644 
	C242.371094,319.452789 239.628601,320.813354 234.827530,319.810608 
M254.128601,287.776154 
	C253.298630,290.327454 252.468658,292.878723 251.553513,295.691895 
	C256.689667,295.691895 261.110962,295.691895 266.102417,295.691895 
	C263.550812,289.363892 261.132172,283.365570 258.517761,276.881775 
	C257.004150,280.668030 255.727386,283.861786 254.128601,287.776154 
z"/>
<path fill="#FAFAFA" opacity="1.000000" stroke="none" 
	d="
M567.816528,274.436035 
	C568.338928,272.987244 568.862061,271.136719 569.382446,271.137512 
	C576.004700,271.147430 582.763672,270.662109 589.213440,271.825134 
	C597.143005,273.255035 600.848755,279.635559 599.953735,287.788574 
	C599.193726,294.712830 593.531860,299.691467 585.891113,299.987610 
	C582.265320,300.128082 578.629517,300.011719 574.551270,300.011719 
	C574.551270,306.825623 574.551270,313.242493 574.551270,319.831604 
	C572.144653,319.831604 570.190247,319.831604 567.815918,319.831604 
	C567.815918,304.765320 567.815918,289.830017 567.816528,274.436035 
M590.756348,279.743103 
	C585.939697,275.346039 580.255798,277.445801 574.826050,277.060577 
	C574.826050,283.010651 574.826050,288.399292 574.826050,294.008423 
	C577.819336,294.008423 580.471741,294.035797 583.123474,294.003387 
	C591.905823,293.896118 595.181580,288.406311 590.756348,279.743103 
z"/>
<path fill="#F9F9F9" opacity="1.000000" stroke="none" 
	d="
M782.535461,300.878662 
	C782.532715,305.387543 782.532715,309.381317 782.532715,313.758240 
	C788.661438,313.758240 794.603882,313.758240 800.862915,313.758240 
	C800.862915,315.877899 800.862915,317.619995 800.862915,319.691071 
	C792.888916,319.691071 784.818359,319.691071 776.365112,319.691071 
	C776.365112,303.866730 776.365112,287.798767 776.365112,271.357391 
	C784.296021,271.357391 792.514832,271.357391 800.961304,271.357391 
	C800.961304,273.036591 800.961304,274.809845 800.961304,276.985962 
	C794.910645,276.985962 788.984192,276.985962 782.801208,276.985962 
	C782.801208,281.781128 782.801208,286.183594 782.801208,291.093689 
	C788.793091,291.093689 794.712097,291.093689 800.816650,291.093689 
	C800.816650,293.371948 800.816650,295.145325 800.816650,297.188080 
	C795.820801,297.188080 790.995850,297.275116 786.176392,297.151062 
	C783.794800,297.089783 782.224731,297.557312 782.535461,300.878662 
z"/>
<path fill="#FBFBFB" opacity="1.000000" stroke="none" 
	d="
M324.993622,297.177734 
	C321.691711,297.177734 318.869324,297.177734 315.612976,297.177734 
	C315.612976,302.751587 315.612976,308.109833 315.612976,313.932373 
	C321.501465,313.932373 327.420929,313.932373 333.583618,313.932373 
	C333.583618,316.103424 333.583618,317.821655 333.583618,320.008301 
	C326.796967,320.008301 320.174713,320.008301 313.552490,320.008301 
	C312.101105,320.008301 310.649750,320.008301 309.013123,320.008301 
	C309.013123,303.588165 309.013123,287.646271 309.013123,271.347717 
	C317.001709,271.347717 325.068909,271.347717 333.632629,271.347717 
	C333.704193,272.929230 333.782104,274.651062 333.880493,276.824951 
	C327.683228,276.824951 321.757385,276.824951 315.507172,276.824951 
	C315.507172,281.652435 315.507172,286.050659 315.507172,290.882172 
	C321.214294,290.882172 326.961639,290.882172 333.268982,290.882172 
	C333.363495,292.995056 333.440308,294.711792 333.550659,297.177734 
	C330.654846,297.177734 328.063995,297.177734 324.993622,297.177734 
z"/>
<path fill="#313131" opacity="1.000000" stroke="none" 
	d="
M491.524872,140.544373 
	C499.062317,156.093460 497.050781,172.123291 486.237244,182.720139 
	C476.098083,192.656158 463.917114,193.815872 451.160492,189.488251 
	C438.750488,185.278229 432.374634,175.694305 431.078003,162.977432 
	C429.758484,150.035645 432.863251,138.595612 444.248322,130.638412 
	C459.500671,119.978310 481.282074,124.391098 491.524872,140.544373 
z"/>
<path fill="#363636" opacity="1.000000" stroke="none" 
	d="
M566.154968,128.264679 
	C566.218933,126.511383 566.282837,125.227242 566.348511,123.908485 
	C574.039368,123.908485 581.495483,123.457512 588.870789,124.036316 
	C596.131653,124.606148 600.652649,130.243729 600.841492,137.503235 
	C601.022217,144.451965 596.339783,150.515427 589.097412,151.147171 
	C581.732117,151.789642 574.267151,151.289124 566.154968,151.289124 
	C566.154968,143.877472 566.154968,136.305649 566.154968,128.264679 
z"/>
<path fill="#383838" opacity="1.000000" stroke="none" 
	d="
M705.672119,124.687820 
	C706.355286,124.419701 707.177673,124.361496 707.255249,124.574554 
	C711.210938,135.434174 715.103088,146.316925 719.132507,157.560898 
	C710.591797,157.560898 702.382751,157.560898 693.733643,157.560898 
	C697.672485,146.635468 701.568115,135.829880 705.672119,124.687820 
z"/>
<path fill="#303030" opacity="1.000000" stroke="none" 
	d="
M467.971924,295.025116 
	C467.589111,303.791138 464.107635,310.147736 455.974091,313.126251 
	C448.724792,315.780945 441.835205,314.823486 436.105957,309.456451 
	C430.226624,303.948822 428.968292,296.957672 431.084900,289.393158 
	C433.167877,281.948730 441.206787,276.426910 449.294281,276.564484 
	C458.019318,276.712952 464.852142,281.757050 467.046478,289.748688 
	C467.481781,291.333984 467.669861,292.987213 467.971924,295.025116 
z"/>
<path fill="#303030" opacity="1.000000" stroke="none" 
	d="
M382.280457,277.007690 
	C387.340759,278.705139 388.646210,282.327850 387.732483,286.637726 
	C386.799072,291.040039 383.458801,292.601501 379.125977,292.462585 
	C375.828522,292.356812 372.524963,292.441589 368.896057,292.441589 
	C368.896057,287.149567 368.896057,282.266418 368.896057,276.946289 
	C373.274658,276.946289 377.562408,276.946289 382.280457,277.007690 
z"/>
<path fill="#3E3E3E" opacity="1.000000" stroke="none" 
	d="
M650.091064,281.709686 
	C651.940979,286.341858 653.659363,290.600189 655.596252,295.400085 
	C650.631592,295.400085 646.115479,295.400085 640.933167,295.400085 
	C643.173401,289.593292 645.428040,283.749023 648.064758,276.914551 
	C648.916931,278.903107 649.438232,280.119476 650.091064,281.709686 
z"/>
<path fill="#3E3E3E" opacity="1.000000" stroke="none" 
	d="
M254.289612,287.415833 
	C255.727386,283.861786 257.004150,280.668030 258.517761,276.881775 
	C261.132172,283.365570 263.550812,289.363892 266.102417,295.691895 
	C261.110962,295.691895 256.689667,295.691895 251.553513,295.691895 
	C252.468658,292.878723 253.298630,290.327454 254.289612,287.415833 
z"/>
<path fill="#383838" opacity="1.000000" stroke="none" 
	d="
M591.031616,280.029175 
	C595.181580,288.406311 591.905823,293.896118 583.123474,294.003387 
	C580.471741,294.035797 577.819336,294.008423 574.826050,294.008423 
	C574.826050,288.399292 574.826050,283.010651 574.826050,277.060577 
	C580.255798,277.445801 585.939697,275.346039 591.031616,280.029175 
z"/>
</svg>